<svg width="184" height="39" enable-background="new 0 0 184 39" viewBox="0 0 184 39" xmlns="http://www.w3.org/2000/svg"><path d="m2.2-1h179.8v40h-179.8" fill="none"/><g clip-rule="evenodd" fill="#fff" fill-rule="evenodd"><path d="m57 13.3v8.4c0 1.1.2 2 .7 2.5.5.6 1.2.9 2.1.9s1.7-.3 2.1-.9c.4-.5.7-1.3.7-2.3v-.3-8.4h3.5v8.8c0 1.9-.6 3.4-1.8 4.5s-2.7 1.7-4.6 1.7-3.5-.6-4.6-1.7-1.7-2.5-1.8-4.2v-.3-8.7zm29.7-.7c2.2 0 4 .7 5.4 2.1 1.4 1.3 2.1 3 2.2 5.1v.4.5c0 2.2-.7 4-2.2 5.4s-3.3 2.1-5.4 2.1-4-.7-5.4-2.1c-1.3-1.3-2.1-3-2.1-5.1v-.4-.5c0-2.2.7-4.1 2.1-5.5 1.4-1.3 3.2-2 5.4-2zm73.6 0c2.1 0 3.8.7 5.1 2.1s2 3.2 2 5.4v.7.4.4h-10.7c.2 1.2.6 2.1 1.2 2.8.7.7 1.5 1 2.6 1 .8 0 1.5-.1 2-.4.3-.2.6-.4.8-.7l.1-.2h3.6c-.4 1.3-1.2 2.3-2.2 3-1.2.8-2.7 1.2-4.5 1.2-2.1 0-3.9-.7-5.3-2.2-1.3-1.4-2-3-2.1-5.1v-.4-.5c0-2.2.7-4 2.1-5.4s3.2-2.1 5.3-2.1zm-9.8-5.3v20.5h-2.7l-.5-1.7h-.1c-.5.7-1.3 1.3-2.1 1.6s-1.8.5-2.9.5c-1.9 0-3.5-.7-4.9-2.1-1.3-1.3-2-3-2-5v-.4-.6c0-2.2.7-4.1 2-5.5s3.1-2.1 5.2-2.1c1 0 1.8.1 2.5.4.6.2 1.2.6 1.6 1l.2.2h.1v-6.8zm-25.5 5.3c1 0 1.8.2 2.6.5.7.3 1.4.8 2 1.4l.3.3h.1l.6-1.7h2.6v14.8h-2.8l-.6-1.8h-.1c-.5.7-1.2 1.3-2 1.7s-1.8.6-2.8.6c-1.9 0-3.6-.7-4.9-2.1-1.2-1.3-1.9-3-2-5v-.4-.5c0-2.2.7-4 2-5.5 1.3-1.6 3-2.3 5-2.3zm-51.4-3.3v3.3h3.7v2.8h-3.7v8c0 .6.1 1 .4 1.2.3.3.7.4 1.2.4.4 0 .7-.1 1-.2s.5-.2.8-.4l.2-.1h.5v2.9c-.4.2-.8.4-1.4.5-.5.3-1.1.3-1.5.3-1.6 0-2.8-.4-3.6-1.2s-1.2-1.9-1.2-3.4v-.3-7.7h-2v-1.6c.9-.5 1.7-1 2.4-1.7.6-.6 1.1-1.4 1.5-2.4l.2-.4zm33.9-1.1v3.2h-5.5v16.4h-3.7v-16.4h-5.7v-3.2zm8.1 4.7c.4 0 .7 0 1.1.1h.1v3.5h-1.3c-1.3 0-2.3.3-2.8.9-.5.5-.8 1.6-.9 3v.3 7.1h-3.6v-14.8h2.5l.8 2.8h.1c.2-.9.7-1.6 1.4-2.2.7-.4 1.5-.7 2.6-.7zm61.6 0c.4 0 .7 0 1.1.1h.1v3.5h-1.3c-1.3 0-2.3.3-2.8.9-.5.5-.8 1.6-.9 3v.3 7.1h-3.6v-14.8h2.5l.8 2.8h.1c.2-.9.7-1.6 1.4-2.2.7-.4 1.6-.7 2.6-.7zm-132.5-4.3 7.6 18.7v.5h-3.8l-1.5-3.9-.3-.9h-8l-.3.8-1.5 3.9h-3.7v-.5l7.6-18.7zm-14.6 11.2-1.8 4.3c-.9 2.1-2.9 3.6-5.2 3.6h-17.3l3.2-8c0 .1 21.1.1 21.1.1zm95.5-4.3c-1.3 0-2.3.4-3 1.3s-1.1 2.1-1.1 3.6.4 2.7 1.1 3.6 1.7 1.3 3 1.3 2.2-.4 3-1.3c.7-.9 1.1-2.1 1.1-3.6s-.4-2.7-1.1-3.6c-.8-.9-1.7-1.3-3-1.3zm17.4 0c-1.3 0-2.3.4-3 1.3s-1.1 2.1-1.1 3.6.4 2.7 1.1 3.6 1.7 1.3 3 1.3 2.2-.4 3-1.3c.7-.9 1.1-2.1 1.1-3.6s-.4-2.7-1.1-3.6c-.8-.9-1.8-1.3-3-1.3zm-56.3 0c-1.2 0-2.2.4-2.9 1.3s-1 2.1-1 3.6.3 2.7 1 3.6 1.7 1.3 2.9 1.3 2.2-.4 2.9-1.3 1.1-2.1 1.1-3.6-.4-2.7-1.1-3.6c-.7-.8-1.7-1.3-2.9-1.3zm-44-3.3c-.1.3-.2.7-.4 1.1-.1.4-.3.9-.6 1.6l-.1.3-1.7 4.6h5.5l-1.7-4.6c-.3-.7-.5-1.5-.8-2.2 0-.2-.1-.5-.2-.8zm117.7 3.3c-1 0-1.8.3-2.4.8s-1 1.2-1.2 2.1l-.1.3h7c-.1-1-.4-1.8-1-2.4-.6-.5-1.4-.8-2.3-.8z"/><path d="m34.6 8.6h-17.3c-2.3 0-4.3 1.5-5.2 3.6l-1.8 4.3h21.1c0 .1 3.2-7.9 3.2-7.9z"/></g></svg>